<?xml version="1.0" standalone="no"?>
<!DOCTYPE svg PUBLIC "-//W3C//DTD SVG 20010904//EN"
 "http://www.w3.org/TR/2001/REC-SVG-20010904/DTD/svg10.dtd">
<svg version="1.0" xmlns="http://www.w3.org/2000/svg"
 width="128.000000pt" height="128.000000pt" viewBox="0 0 128.000000 128.000000"
 preserveAspectRatio="xMidYMid meet">

<g transform="translate(0.000000,128.000000) scale(0.100000,-0.100000)"
fill="#000000" stroke="none">
<path d="M645 1206 c-27 -12 -65 -38 -83 -57 -49 -50 -374 -559 -368 -575 3
-8 12 -14 20 -14 8 0 94 124 193 276 185 288 203 309 290 339 173 59 353 -130
289 -305 -15 -42 -427 -683 -464 -724 -100 -106 -286 -41 -300 104 -2 27 0 62
6 78 5 16 107 180 226 365 226 349 241 367 308 367 37 0 88 -37 105 -78 14
-33 14 -42 1 -77 -8 -22 -87 -153 -177 -292 -89 -139 -160 -257 -156 -263 19
-31 47 2 200 241 88 138 166 262 173 276 19 35 17 104 -4 148 -40 86 -163 117
-240 62 -24 -17 -102 -128 -251 -358 -119 -184 -222 -348 -229 -366 -34 -80 1
-205 73 -260 92 -70 227 -60 304 24 15 15 126 182 247 371 162 253 223 356
232 393 33 136 -49 290 -178 333 -68 24 -157 20 -217 -8z"/>
</g>
</svg>
